name GIL02_xslow2EmgEnv.mot
datacolumns 51
datarows 11
range 1.57962942 1.58888876
endheader
                time	   rect_fem_l_emgRec	   rect_fem_l_emgEnv	   rect_fem_l_emgAve	   rect_fem_l_emgSDp	   rect_fem_l_emgSDm	   rect_fem_r_emgRec	   rect_fem_r_emgEnv	   rect_fem_r_emgAve	   rect_fem_r_emgSDp	   rect_fem_r_emgSDm	   med_hams_l_emgRec	   med_hams_l_emgEnv	   med_hams_l_emgAve	   med_hams_l_emgSDp	   med_hams_l_emgSDm	   med_hams_r_emgRec	   med_hams_r_emgEnv	   med_hams_r_emgAve	   med_hams_r_emgSDp	   med_hams_r_emgSDm	   lat_hams_l_emgRec	   lat_hams_l_emgEnv	   lat_hams_l_emgAve	   lat_hams_l_emgSDp	   lat_hams_l_emgSDm	   lat_hams_r_emgRec	   lat_hams_r_emgEnv	   lat_hams_r_emgAve	   lat_hams_r_emgSDp	   lat_hams_r_emgSDm	    tib_ant_l_emgRec	    tib_ant_l_emgEnv	    tib_ant_l_emgAve	    tib_ant_l_emgSDp	    tib_ant_l_emgSDm	    tib_ant_r_emgRec	    tib_ant_r_emgEnv	    tib_ant_r_emgAve	    tib_ant_r_emgSDp	    tib_ant_r_emgSDm	    gas_sol_l_emgRec	    gas_sol_l_emgEnv	    gas_sol_l_emgAve	    gas_sol_l_emgSDp	    gas_sol_l_emgSDm	    gas_sol_r_emgRec	    gas_sol_r_emgEnv	    gas_sol_r_emgAve	    gas_sol_r_emgSDp	    gas_sol_r_emgSDm	
          1.57962942	          0.04211179	          0.06337430	          0.09480023	          0.09480023	          0.09480023	          0.05298937	          0.14411063	          0.27677223	          0.27677223	          0.27677223	          0.03463204	          0.21788311	          0.15392525	          0.15392525	          0.15392525	          0.01249764	          0.03610322	          0.04422582	          0.04422582	          0.04422582	          0.03376164	          0.29827321	          0.19296429	          0.19296429	          0.19296429	          0.03417221	          0.03564820	          0.03456826	          0.03456826	          0.03456826	          0.30823757	          0.50857541	          0.62838715	          0.62838715	          0.62838715	          0.00981489	          0.03115476	          0.05589974	          0.05589974	          0.05589974	          0.00109950	          0.01272885	          0.04234416	          0.04234416	          0.04234416	          0.05691210	          0.18970382	          0.13693903	          0.13693903	          0.13693903	
          1.58055544	          0.07399891	          0.06432349	          0.09391934	          0.09391934	          0.09391934	          0.07769135	          0.14827653	          0.27595189	          0.27595189	          0.27595189	          0.06256390	          0.21814308	          0.15327121	          0.15327121	          0.15327121	          0.01311000	          0.03603058	          0.04446398	          0.04446398	          0.04446398	          0.07447142	          0.29651070	          0.19135340	          0.19135340	          0.19135340	          0.00163164	          0.03545038	          0.03514576	          0.03514576	          0.03514576	          0.19811008	          0.50729607	          0.62492365	          0.62492365	          0.62492365	          0.01349179	          0.03141087	          0.05577976	          0.05577976	          0.05577976	          0.01399685	          0.01264455	          0.04194254	          0.04194254	          0.04194254	          0.11014237	          0.18773982	          0.13754071	          0.13754071	          0.13754071	
          1.58148134	          0.13110721	          0.06531436	          0.09303977	          0.09303977	          0.09303977	          0.07962578	          0.15253485	          0.27512670	          0.27512670	          0.27512670	          0.07385750	          0.21835068	          0.15261549	          0.15261549	          0.15261549	          0.00241801	          0.03595070	          0.04470094	          0.04470094	          0.04470094	          0.10384900	          0.29461018	          0.18974614	          0.18974614	          0.18974614	          0.01969585	          0.03524091	          0.03572141	          0.03572141	          0.03572141	          0.09458157	          0.50613051	          0.62145656	          0.62145656	          0.62145656	          0.00375862	          0.03171297	          0.05566010	          0.05566010	          0.05566010	          0.00858389	          0.01256937	          0.04153881	          0.04153881	          0.04153881	          0.07693597	          0.18591746	          0.13817430	          0.13817430	          0.13817430	
          1.58240724	          0.10024814	          0.06634455	          0.09216160	          0.09216160	          0.09216160	          0.06070556	          0.15688169	          0.27429637	          0.27429637	          0.27429637	          0.08927858	          0.21850346	          0.15195778	          0.15195778	          0.15195778	          0.00567060	          0.03586392	          0.04493672	          0.04493672	          0.04493672	          0.09022096	          0.29257629	          0.18814234	          0.18814234	          0.18814234	          0.03280223	          0.03502022	          0.03629523	          0.03629523	          0.03629523	          0.03414671	          0.50506896	          0.61798656	          0.61798656	          0.61798656	          0.00414286	          0.03206263	          0.05554071	          0.05554071	          0.05554071	          0.00620483	          0.01250358	          0.04113306	          0.04113306	          0.04113306	          0.04777354	          0.18423634	          0.13883995	          0.13883995	          0.13883995	
          1.58333313	          0.04629596	          0.06741159	          0.09128498	          0.09128498	          0.09128498	          0.01772149	          0.16131309	          0.27346110	          0.27346110	          0.27346110	          0.05794447	          0.21859902	          0.15129793	          0.15129793	          0.15129793	          0.00749318	          0.03577063	          0.04517130	          0.04517130	          0.04517130	          0.06244479	          0.29041386	          0.18654214	          0.18654214	          0.18654214	          0.04019712	          0.03478878	          0.03686712	          0.03686712	          0.03686712	          0.11494914	          0.50410147	          0.61451417	          0.61451417	          0.61451417	          0.00175468	          0.03246132	          0.05542162	          0.05542162	          0.05542162	          0.01780185	          0.01244744	          0.04072546	          0.04072546	          0.04072546	          0.09605778	          0.18269570	          0.13953751	          0.13953751	          0.13953751	
          1.58425915	          0.01710064	          0.06851296	          0.09041000	          0.09041000	          0.09041000	          0.05393651	          0.16582492	          0.27262077	          0.27262077	          0.27262077	          0.05887575	          0.21863506	          0.15063579	          0.15063579	          0.15063579	          0.00899129	          0.03567120	          0.04540467	          0.04540467	          0.04540467	          0.07347652	          0.28812794	          0.18494534	          0.18494534	          0.18494534	          0.03541152	          0.03454712	          0.03743712	          0.03743712	          0.03743712	          0.23436494	          0.50321784	          0.61104000	          0.61104000	          0.61104000	          0.00436744	          0.03291044	          0.05530282	          0.05530282	          0.05530282	          0.01838259	          0.01240123	          0.04031610	          0.04031610	          0.04031610	          0.03875449	          0.18129443	          0.14026719	          0.14026719	          0.14026719	
          1.58518505	          0.01329101	          0.06964602	          0.08953707	          0.08953707	          0.08953707	          0.16631625	          0.17041296	          0.27177557	          0.27177557	          0.27177557	          0.12000448	          0.21860938	          0.14997134	          0.14997134	          0.14997134	          0.00800726	          0.03556602	          0.04563672	          0.04563672	          0.04563672	          0.09258607	          0.28572372	          0.18335241	          0.18335241	          0.18335241	          0.02499423	          0.03429581	          0.03800496	          0.03800496	          0.03800496	          0.20880980	          0.50240772	          0.60756552	          0.60756552	          0.60756552	          0.00383451	          0.03341131	          0.05518432	          0.05518432	          0.05518432	          0.00274542	          0.01236523	          0.03990525	          0.03990525	          0.03990525	          0.09673618	          0.18003110	          0.14102869	          0.14102869	          0.14102869	
          1.58611095	          0.02381849	          0.07080805	          0.08866624	          0.08866624	          0.08866624	          0.20112973	          0.17507283	          0.27092549	          0.27092549	          0.27092549	          0.09749215	          0.21851988	          0.14930439	          0.14930439	          0.14930439	          0.00102647	          0.03545548	          0.04586750	          0.04586750	          0.04586750	          0.07969569	          0.28320658	          0.18176325	          0.18176325	          0.18176325	          0.00478302	          0.03403551	          0.03857069	          0.03857069	          0.03857069	          0.09715849	          0.50166059	          0.60409099	          0.60409099	          0.60409099	          0.00867890	          0.03396516	          0.05506610	          0.05506610	          0.05506610	          0.01290897	          0.01233973	          0.03949300	          0.03949300	          0.03949300	          0.11922987	          0.17890389	          0.14182205	          0.14182205	          0.14182205	
          1.58703685	          0.11952373	          0.07199628	          0.08779766	          0.08779766	          0.08779766	          0.04056377	          0.17979996	          0.27007049	          0.27007049	          0.27007049	          0.10079700	          0.21836455	          0.14863481	          0.14863481	          0.14863481	          0.00705774	          0.03534001	          0.04609695	          0.04609695	          0.04609695	          0.03583139	          0.28058197	          0.18017787	          0.18017787	          0.18017787	          0.01725852	          0.03376689	          0.03913424	          0.03913424	          0.03913424	          0.00306725	          0.50096584	          0.60061723	          0.60061723	          0.60061723	          0.02184211	          0.03457312	          0.05494817	          0.05494817	          0.05494817	          0.01471830	          0.01232499	          0.03907950	          0.03907950	          0.03907950	          0.09000176	          0.17791066	          0.14264736	          0.14264736	          0.14264736	
          1.58796275	          0.12725321	          0.07320784	          0.08693159	          0.08693159	          0.08693159	          0.11952875	          0.18458964	          0.26921061	          0.26921061	          0.26921061	          0.08446719	          0.21814151	          0.14796241	          0.14796241	          0.14796241	          0.00176683	          0.03522002	          0.04632505	          0.04632505	          0.04632505	          0.00590717	          0.27785547	          0.17859639	          0.17859639	          0.17859639	          0.02330420	          0.03349069	          0.03969551	          0.03969551	          0.03969551	          0.07354294	          0.50031280	          0.59714490	          0.59714490	          0.59714490	          0.03939153	          0.03523621	          0.05483054	          0.05483054	          0.05483054	          0.00464747	          0.01232132	          0.03866490	          0.03866490	          0.03866490	          0.07143446	          0.17704894	          0.14350447	          0.14350447	          0.14350447	
          1.58888876	          0.04465695	          0.07443983	          0.08606800	          0.08606800	          0.08606800	          0.11428128	          0.18943696	          0.26834577	          0.26834577	          0.26834577	          0.04583137	          0.21784900	          0.14728706	          0.14728706	          0.14728706	          0.00922942	          0.03509591	          0.04655179	          0.04655179	          0.04655179	          0.01458431	          0.27503273	          0.17701866	          0.17701866	          0.17701866	          0.00051462	          0.03320769	          0.04025452	          0.04025452	          0.04025452	          0.12074662	          0.49969075	          0.59367436	          0.59367436	          0.59367436	          0.00611791	          0.03595535	          0.05471319	          0.05471319	          0.05471319	          0.00058057	          0.01232900	          0.03824928	          0.03824928	          0.03824928	          0.03870323	          0.17631589	          0.14439344	          0.14439344	          0.14439344	
